PathFileType	4	(X/Y/Z)	 s11c0001.trc
DataRate	CameraRate	NumFrames	NumMarkers	Units	OrigDataRate	OrigDataStartFrame	OrigNumFrames
200	200	7	49	mm	200	1001	2000
Frame#	Time	racr			lacr			c7			jug			rlel			rdr			llel			ldr			s2			lic			ric			lasi			rasi			rpsi			lpsi			rgt			lgt			rth1			rth2			rth3			rth4			rlfc			rmfc			rsh1			rsh2			rsh3			rsh4			rlmal			rmmal			rcal			rtoe			rmt5			rmt1			lth1			lth2			lth4			lth3			llfc			lmfc			llmal			lmmal			lcal			lmt1			lmt5			lsh1			lsh2			lsh3			lsh4			ltoe			
		X1	Y1	Z1	X2	Y2	Z2	X3	Y3	Z3	X4	Y4	Z4	X5	Y5	Z5	X6	Y6	Z6	X7	Y7	Z7	X8	Y8	Z8	X9	Y9	Z9	X10	Y10	Z10	X11	Y11	Z11	X12	Y12	Z12	X13	Y13	Z13	X14	Y14	Z14	X15	Y15	Z15	X16	Y16	Z16	X17	Y17	Z17	X18	Y18	Z18	X19	Y19	Z19	X20	Y20	Z20	X21	Y21	Z21	X22	Y22	Z22	X23	Y23	Z23	X24	Y24	Z24	X25	Y25	Z25	X26	Y26	Z26	X27	Y27	Z27	X28	Y28	Z28	X29	Y29	Z29	X30	Y30	Z30	X31	Y31	Z31	X32	Y32	Z32	X33	Y33	Z33	X34	Y34	Z34	X35	Y35	Z35	X36	Y36	Z36	X37	Y37	Z37	X38	Y38	Z38	X39	Y39	Z39	X40	Y40	Z40	X41	Y41	Z41	X42	Y42	Z42	X43	Y43	Z43	X44	Y44	Z44	X45	Y45	Z45	X46	Y46	Z46	X47	Y47	Z47	X48	Y48	Z48	X49	Y49	Z49	
1001	5.0050	485.290405	1571.164542	592.410866	455.327374	1596.066839	179.209038	389.603144	1619.869918	386.006769	553.079781	1560.655093	368.050114	487.203991	1313.258918	743.433191	617.991218	1087.260159	889.774394	426.957900	1300.952918	48.953101	552.195292	1062.415167	-128.738401	342.774458	1075.281270	393.743761	511.360049	1162.648618	176.172678	555.213072	1151.621601	567.549035	578.463837	1109.155006	205.565767	611.084703	1111.868941	521.720777	364.484398	1130.196152	448.470675	351.214649	1127.200627	345.759918	508.272343	960.748090	589.364057	444.119478	991.889795	174.816116	518.024925	833.390353	586.223120	538.138507	750.428697	560.694481	514.113271	668.525901	542.295407	572.065785	753.184677	548.226247	509.644351	563.033280	517.004619	504.027134	545.675777	397.229490	463.738799	413.721318	538.943285	478.703094	327.508745	525.131129	448.735973	244.901560	524.914449	504.936706	327.188873	496.064301	431.553049	108.628744	513.465276	463.361899	122.737573	425.971815	386.723870	80.305370	459.328050	667.370503	91.340527	518.996946	591.441243	54.539680	574.065317	609.827343	58.604987	458.448528	473.209095	858.968628	154.706285	492.530548	776.800612	169.472903	528.863565	775.474719	175.042274	466.335688	692.336363	183.608303	461.112710	550.286103	213.431615	475.049898	540.127865	339.618655	405.833993	117.463731	223.535536	436.783464	133.588818	297.734225	369.134903	68.587073	259.905193	592.865573	56.134638	292.015808	569.944287	55.352172	174.981148	423.799229	427.388151	192.548506	442.208663	343.597998	199.519771	416.433787	258.938772	203.055614	474.057312	344.034531	221.835687	660.207533	95.598986	244.001354	
1002	5.0100	485.311566	1571.155294	592.419239	455.311170	1596.063980	179.218990	389.604244	1619.865545	386.004195	553.076952	1560.653823	368.036696	487.222142	1313.262558	743.423521	618.009785	1087.275927	889.772201	426.907172	1300.919071	49.006676	552.110729	1062.395693	-128.726389	342.765341	1075.280910	393.741517	511.336282	1162.642627	176.172735	555.233697	1151.634635	567.566262	578.436890	1109.130515	205.559042	611.086147	1111.851077	521.715841	364.476649	1130.196843	448.502122	351.197947	1127.201231	345.771800	508.279747	960.749989	589.359380	444.100055	991.880287	174.821784	518.021548	833.391398	586.228690	538.135863	750.429323	560.711171	514.115333	668.531451	542.292458	572.079097	753.167814	548.219858	509.614971	563.017629	516.995159	503.980468	545.664607	397.227387	463.753222	413.715085	538.965323	478.696645	327.521016	525.126042	448.714988	244.900189	524.915494	504.937085	327.187705	496.063227	431.559143	108.626311	513.481096	463.347509	122.732156	425.963998	386.747670	80.279893	459.339029	667.373844	91.341787	518.976783	591.461746	54.510969	574.094856	609.831334	58.601285	458.456833	473.208473	858.965750	154.726093	492.514319	776.815485	169.476153	528.854167	775.460353	175.095982	466.317158	692.326353	183.626004	461.112015	550.280093	213.444726	475.064907	540.136870	339.622932	405.818870	117.468807	223.524643	436.781224	133.595526	297.739868	369.135021	68.589191	259.916901	592.859690	56.129532	292.015847	569.938243	55.348918	174.974925	423.803189	427.388849	192.541938	442.203712	343.571481	199.533627	416.435542	258.931203	203.072501	474.037617	344.021972	221.831294	660.210095	95.590241	244.004361	
1003	5.0150	485.317410	1571.159494	592.392060	455.259550	1596.055070	179.196972	389.610767	1619.867675	385.969911	553.078669	1560.633763	368.018826	487.227569	1313.261614	743.412628	618.034163	1087.301194	889.777355	426.867007	1300.901202	49.016938	552.040737	1062.360547	-128.732190	342.724167	1075.284332	393.749625	511.335567	1162.643780	176.173087	555.179435	1151.619724	567.540899	578.414962	1109.139769	205.572289	611.071664	1111.860551	521.733163	364.453310	1130.186370	448.493132	351.184635	1127.198492	345.774952	508.259688	960.749543	589.360994	444.079823	991.880096	174.827430	518.014339	833.382245	586.214095	538.130179	750.439144	560.709636	514.104357	668.545907	542.300639	572.054855	753.152619	548.212718	509.602135	563.026657	516.995772	503.980303	545.676261	397.232572	463.734005	413.709480	538.952857	478.705794	327.520205	525.131970	448.728235	244.895932	524.900419	504.924535	327.180159	496.061393	431.530320	108.607536	513.476767	463.349805	122.745621	425.977172	386.733665	80.292911	459.339393	667.360791	91.330790	518.991216	591.432137	54.535553	574.075162	609.821795	58.618242	458.443792	473.169332	858.954089	154.715644	492.500354	776.798178	169.481609	528.825727	775.475024	175.105121	466.305158	692.331594	183.637889	461.085472	550.293798	213.435859	475.058175	540.150829	339.631893	405.835380	117.471246	223.529390	436.786340	133.584886	297.741200	369.125403	68.577858	259.921643	592.870132	56.132892	292.024786	569.938404	55.362258	174.980453	423.794486	427.388283	192.553518	442.200546	343.573019	199.546960	416.433297	258.935227	203.068738	474.034522	344.030859	221.848719	660.186672	95.582069	243.988561	
1004	5.0200	485.344841	1571.170628	592.374271	455.238068	1596.037463	179.173017	389.604244	1619.865543	386.004195	553.071842	1560.638114	368.001227	487.252276	1313.275596	743.399126	618.066839	1087.322042	889.766310	426.802611	1300.879681	49.025493	551.962661	1062.340243	-128.745015	342.729867	1075.259542	393.750221	511.283922	1162.621360	176.158861	555.182785	1151.626586	567.546546	578.401629	1109.139725	205.561462	611.052006	1111.860959	521.718022	364.428503	1130.181890	448.511240	351.179296	1127.187385	345.777958	508.257535	960.752531	589.360038	444.054825	991.870524	174.853101	518.013653	833.376565	586.216288	538.128592	750.444180	560.726224	514.118567	668.535130	542.301847	572.036048	753.184537	548.228574	509.611732	563.043346	517.010475	503.978304	545.668610	397.234034	463.740002	413.720369	538.965198	478.737033	327.514385	525.153736	448.719308	244.895893	524.913608	504.905266	327.179000	496.058174	431.566888	108.617260	513.478167	463.367663	122.743082	425.972723	386.741070	80.278124	459.311759	667.365985	91.359656	518.985042	591.436429	54.520027	574.087602	609.822136	58.585106	458.440724	473.154804	858.954432	154.732913	492.488634	776.794230	169.481706	528.811094	775.466696	175.105199	466.279793	692.319903	183.641815	461.087914	550.290624	213.442841	475.064172	540.138361	339.629296	405.833499	117.455775	223.533225	436.780792	133.585749	297.740927	369.120091	68.588063	259.925861	592.876208	56.131289	292.021483	569.939532	55.366146	174.985770	423.765161	427.395242	192.549510	442.195721	343.575205	199.548414	416.414944	258.924100	203.070858	474.031766	344.015737	221.827251	660.185574	95.586105	243.985857	
1005	5.0250	485.344161	1571.171560	592.375314	455.226273	1596.032346	179.178749	389.604368	1619.859629	386.005153	553.071533	1560.632541	367.978747	487.234777	1313.272643	743.399477	618.085884	1087.342562	889.761963	426.771083	1300.886665	49.027945	551.887276	1062.312747	-128.750929	342.707504	1075.271659	393.763588	511.257526	1162.621322	176.158092	555.140633	1151.629533	567.526030	578.341333	1109.123008	205.552340	611.036384	1111.857655	521.720063	364.428503	1130.181890	448.511240	351.143510	1127.195923	345.799106	508.260616	960.746695	589.360249	444.034846	991.876524	174.826865	518.001397	833.380397	586.232677	538.103648	750.438392	560.714331	514.104258	668.543274	542.305157	572.045973	753.192818	548.213650	509.606304	563.039514	517.002365	503.965230	545.690265	397.252346	463.734602	413.714872	538.960161	478.657654	327.511608	525.131221	448.709025	244.903234	524.924945	504.913346	327.170932	496.056112	431.540947	108.592468	513.477830	463.359189	122.759293	425.970857	386.745858	80.270183	459.333185	667.362545	91.345568	518.998034	591.445704	54.537468	574.057702	609.805674	58.599241	458.449288	473.122162	858.950628	154.720855	492.457909	776.806696	169.454730	528.796259	775.466097	175.081473	466.248328	692.307733	183.628221	461.064310	550.287982	213.437596	475.050562	540.126717	339.620430	405.839534	117.443449	223.541999	436.786568	133.576242	297.741116	369.119132	68.586079	259.912339	592.866007	56.127343	292.024311	569.949105	55.354545	174.994493	423.760872	427.390278	192.548867	442.174979	343.568446	199.538539	416.396365	258.932883	203.061639	473.999885	344.013965	221.826375	660.190996	95.576262	243.991744	
1006	5.0300	485.355425	1571.181420	592.354176	455.208346	1596.012011	179.161807	389.604235	1619.881348	386.002032	553.057703	1560.635487	367.961121	487.255261	1313.277500	743.384531	618.104103	1087.358653	889.756544	426.711892	1300.872875	49.063527	551.833633	1062.272864	-128.738467	342.688773	1075.275625	393.766070	511.211212	1162.586236	176.186901	555.155792	1151.628057	567.556046	578.324965	1109.111852	205.554733	611.032972	1111.870750	521.723516	364.401442	1130.191108	448.528756	351.120335	1127.211388	345.809452	508.244706	960.748506	589.377973	444.006912	991.879404	174.852999	518.004932	833.385171	586.230181	538.115919	750.437215	560.729039	514.100757	668.542353	542.306809	572.051856	753.167690	548.238164	509.618223	563.051543	517.016813	503.932165	545.683813	397.239672	463.741007	413.723507	538.971252	478.694843	327.527519	525.141898	448.720689	244.899986	524.916259	504.912488	327.183684	496.065437	431.550604	108.627031	513.474369	463.366262	122.754302	425.984506	386.739842	80.282588	459.331159	667.365794	91.342311	518.974835	591.435714	54.532394	574.079273	609.834234	58.598337	458.464260	473.095375	858.947648	154.712564	492.427690	776.814160	169.438641	528.768513	775.467143	175.082331	466.236393	692.330046	183.641429	461.068556	550.283489	213.454936	475.065143	540.137303	339.630778	405.831083	117.449865	223.536559	436.790802	133.578136	297.745836	369.136696	68.572751	259.908187	592.864925	56.127140	292.024952	569.946851	55.361487	174.986791	423.742524	427.384838	192.557188	442.167726	343.583560	199.529240	416.397877	258.921959	203.068752	474.004587	344.009915	221.835500	660.190728	95.606170	243.998657	
1007	5.0350	485.369423	1571.204412	592.354477	455.174183	1596.019953	179.151394	389.603258	1619.879879	386.005550	553.072885	1560.625732	367.946001	487.273042	1313.304253	743.393142	618.144885	1087.395854	889.744164	426.677048	1300.849333	49.085276	551.757843	1062.247894	-128.741727	342.679631	1075.272704	393.772704	511.201113	1162.621792	176.165565	555.162287	1151.637279	567.559542	578.324125	1109.121272	205.549073	611.018782	1111.841047	521.709647	364.372369	1130.190825	448.548741	351.104857	1127.187834	345.823409	508.227353	960.755946	589.369325	443.987688	991.880535	174.847492	517.997425	833.393722	586.231032	538.113421	750.438372	560.733569	514.086051	668.539053	542.301993	572.040967	753.188327	548.223245	509.621193	563.061218	517.031750	503.962810	545.677446	397.254914	463.728129	413.723583	538.966611	478.702512	327.527259	525.146468	448.733509	244.891343	524.915517	504.916090	327.190799	496.082131	431.563470	108.619814	513.485047	463.366231	122.764670	425.970802	386.731596	80.294128	459.337313	667.362124	91.350445	518.998083	591.471453	54.514658	574.061506	609.826456	58.585492	458.451560	473.085707	858.953111	154.738444	492.415872	776.796890	169.463588	528.750701	775.478879	175.066573	466.219924	692.310827	183.638881	461.049999	550.281682	213.452672	475.037479	540.130109	339.645448	405.833092	117.456214	223.547383	436.774983	133.589370	297.753097	369.136151	68.583540	259.910110	592.863626	56.134216	292.023460	569.952395	55.359161	174.984868	423.743539	427.377359	192.561442	442.166641	343.570126	199.548837	416.399768	258.920959	203.090285	474.019219	344.010111	221.856672	660.182246	95.582423	243.986107	
